<?xml version="1.0" ?><svg viewBox="0 0 512 512" xmlns="http://www.w3.org/2000/svg"><title/><g data-name="1" id="_1"><path d="M143.46,443.69a89.33,89.33,0,1,1,89.32-89.33A89.43,89.43,0,0,1,143.46,443.69Zm0-148.65a59.33,59.33,0,1,0,59.32,59.32A59.39,59.39,0,0,0,143.46,295Z"/><path d="M366.81,443.69a89.33,89.33,0,1,1,89.32-89.33A89.42,89.42,0,0,1,366.81,443.69Zm0-148.65a59.33,59.33,0,1,0,59.32,59.32A59.39,59.39,0,0,0,366.81,295Z"/><path d="M292.49,369.36H217.78a15,15,0,1,1,0-30h74.71a15,15,0,0,1,0,30Z"/><path d="M69.13,369.36a15,15,0,0,1-15-15V139.09a48.25,48.25,0,0,1,96.5,0,15,15,0,1,1-30,0,18.25,18.25,0,0,0-36.5,0V354.36A15,15,0,0,1,69.13,369.36Z"/><path d="M441.13,369.36a15,15,0,0,1-15-15V139.09a18.25,18.25,0,0,0-36.5,0,15,15,0,1,1-30,0,48.25,48.25,0,0,1,96.5,0V354.36A15,15,0,0,1,441.13,369.36Z"/></g></svg>